<svg width="186" height="28" viewBox="0 0 186 28" fill="none" xmlns="http://www.w3.org/2000/svg">
<path fill-rule="evenodd" clip-rule="evenodd" d="M4.58498 11.7038C3.58498 11.7037 1.41505 11.7038 1.41505 11.7038V23.6105C1.41505 25.3188 2.7999 26.7036 4.5082 26.7036C6.21816 26.7036 7.60369 25.3162 7.60134 23.6062L7.58499 11.7152C7.58498 11.7089 7.57986 11.7038 7.57355 11.7038C7.57146 11.7038 7.56942 11.7044 7.56763 11.7055C6.67507 12.2442 5.6289 12.5541 4.51034 12.5541C3.33763 12.5541 2.19328 12.2522 1.41505 11.7038C1.56618 11.7038 3.62559 11.7037 4.58498 11.7038Z" fill="#903BFF"/>
<circle cx="4.42174" cy="6.71784" r="4.42182" fill="#903BFF"/>
<path d="M6.72119 6.71701C6.72119 7.9869 5.69174 9.01635 4.42184 9.01635C3.15195 9.01635 2.1225 7.9869 2.1225 6.71701C2.1225 5.44712 3.15195 4.41766 4.42184 4.41766C5.69174 4.41766 6.72119 5.44712 6.72119 6.71701ZM2.76416 6.71701C2.76416 7.63252 3.50633 8.37469 4.42184 8.37469C5.33736 8.37469 6.07953 7.63252 6.07953 6.71701C6.07953 5.80149 5.33736 5.05932 4.42184 5.05932C3.50633 5.05932 2.76416 5.80149 2.76416 6.71701Z" fill="white"/>
<path d="M26.2314 7.45455V22H23.8877L17.034 12.0923H16.9132V22H14.2783V7.45455H16.6362L23.4828 17.3693H23.6107V7.45455H26.2314ZM29.1025 22V7.45455H38.4207V9.66335H31.7374V13.6122H37.7815V15.821H31.7374V22H29.1025ZM40.8213 22V7.45455H50.2815V9.66335H43.4562V13.6122H49.7914V15.821H43.4562V19.7912H50.3383V22H40.8213ZM52.9697 22V7.45455H58.4242C59.5417 7.45455 60.4792 7.64867 61.2367 8.03693C61.999 8.42519 62.5743 8.9697 62.9626 9.67045C63.3556 10.3665 63.5521 11.1785 63.5521 12.1065C63.5521 13.0393 63.3532 13.849 62.9555 14.5355C62.5625 15.2173 61.9825 15.7453 61.2154 16.1193C60.4484 16.4886 59.5062 16.6733 58.3887 16.6733H54.5038V14.4858H58.0336C58.687 14.4858 59.2221 14.3958 59.6387 14.2159C60.0554 14.0312 60.3632 13.7637 60.562 13.4134C60.7656 13.0582 60.8674 12.6226 60.8674 12.1065C60.8674 11.5904 60.7656 11.1501 60.562 10.7855C60.3584 10.4162 60.0483 10.1368 59.6316 9.94744C59.215 9.75331 58.6776 9.65625 58.0194 9.65625H55.6046V22H52.9697ZM60.4839 15.4091L64.0848 22H61.1444L57.6075 15.4091H60.4839ZM78.4278 12.3622H75.7715C75.6958 11.9266 75.5561 11.5407 75.3525 11.2045C75.1489 10.8636 74.8956 10.5748 74.5926 10.3381C74.2895 10.1013 73.9439 9.92377 73.5556 9.8054C73.1721 9.68229 72.7578 9.62074 72.3127 9.62074C71.522 9.62074 70.8213 9.8196 70.2105 10.2173C69.5997 10.6103 69.1214 11.188 68.7758 11.9503C68.4302 12.7079 68.2573 13.6335 68.2573 14.7273C68.2573 15.84 68.4302 16.7775 68.7758 17.5398C69.1262 18.2973 69.6044 18.8703 70.2105 19.2585C70.8213 19.642 71.5196 19.8338 72.3056 19.8338C72.7412 19.8338 73.1484 19.777 73.5272 19.6634C73.9107 19.545 74.254 19.3722 74.5571 19.1449C74.8648 18.9176 75.1229 18.6383 75.3312 18.3068C75.5443 17.9754 75.691 17.5966 75.7715 17.1705L78.4278 17.1847C78.3284 17.8759 78.1129 18.5246 77.7815 19.1307C77.4548 19.7367 77.0263 20.2718 76.496 20.7358C75.9657 21.1951 75.3454 21.5549 74.6352 21.8153C73.9249 22.071 73.1366 22.1989 72.2701 22.1989C70.9917 22.1989 69.8506 21.9029 68.8468 21.3111C67.843 20.7192 67.0523 19.8646 66.4747 18.7472C65.897 17.6297 65.6082 16.2898 65.6082 14.7273C65.6082 13.16 65.8994 11.8201 66.4818 10.7074C67.0642 9.58996 67.8572 8.73532 68.861 8.14347C69.8648 7.55161 71.0012 7.25568 72.2701 7.25568C73.0798 7.25568 73.8326 7.36932 74.5286 7.59659C75.2247 7.82386 75.8449 8.15767 76.3894 8.59801C76.9339 9.03362 77.3814 9.56866 77.7318 10.2031C78.0869 10.8329 78.3189 11.5526 78.4278 12.3622ZM83.4757 7.45455V22H80.8408V7.45455H83.4757ZM86.3291 22V7.45455H91.7836C92.901 7.45455 93.8385 7.64867 94.5961 8.03693C95.3584 8.42519 95.9337 8.9697 96.322 9.67045C96.715 10.3665 96.9115 11.1785 96.9115 12.1065C96.9115 13.0393 96.7126 13.849 96.3149 14.5355C95.9219 15.2173 95.3419 15.7453 94.5748 16.1193C93.8078 16.4886 92.8655 16.6733 91.7481 16.6733H87.8632V14.4858H91.393C92.0464 14.4858 92.5814 14.3958 92.9981 14.2159C93.4148 14.0312 93.7225 13.7637 93.9214 13.4134C94.125 13.0582 94.2268 12.6226 94.2268 12.1065C94.2268 11.5904 94.125 11.1501 93.9214 10.7855C93.7178 10.4162 93.4077 10.1368 92.991 9.94744C92.5743 9.75331 92.0369 9.65625 91.3788 9.65625H88.964V22H86.3291ZM93.8433 15.4091L97.4441 22H94.5038L90.9669 15.4091H93.8433ZM111.787 12.3622H109.131C109.055 11.9266 108.915 11.5407 108.712 11.2045C108.508 10.8636 108.255 10.5748 107.952 10.3381C107.649 10.1013 107.303 9.92377 106.915 9.8054C106.531 9.68229 106.117 9.62074 105.672 9.62074C104.881 9.62074 104.181 9.8196 103.57 10.2173C102.959 10.6103 102.481 11.188 102.135 11.9503C101.79 12.7079 101.617 13.6335 101.617 14.7273C101.617 15.84 101.79 16.7775 102.135 17.5398C102.486 18.2973 102.964 18.8703 103.57 19.2585C104.181 19.642 104.879 19.8338 105.665 19.8338C106.101 19.8338 106.508 19.777 106.887 19.6634C107.27 19.545 107.613 19.3722 107.916 19.1449C108.224 18.9176 108.482 18.6383 108.691 18.3068C108.904 17.9754 109.05 17.5966 109.131 17.1705L111.787 17.1847C111.688 17.8759 111.472 18.5246 111.141 19.1307C110.814 19.7367 110.386 20.2718 109.855 20.7358C109.325 21.1951 108.705 21.5549 107.995 21.8153C107.284 22.071 106.496 22.1989 105.629 22.1989C104.351 22.1989 103.21 21.9029 102.206 21.3111C101.202 20.7192 100.412 19.8646 99.834 18.7472C99.2564 17.6297 98.9676 16.2898 98.9676 14.7273C98.9676 13.16 99.2588 11.8201 99.8411 10.7074C100.424 9.58996 101.217 8.73532 102.22 8.14347C103.224 7.55161 104.361 7.25568 105.629 7.25568C106.439 7.25568 107.192 7.36932 107.888 7.59659C108.584 7.82386 109.204 8.15767 109.749 8.59801C110.293 9.03362 110.741 9.56866 111.091 10.2031C111.446 10.8329 111.678 11.5526 111.787 12.3622ZM114.2 22V7.45455H116.835V19.7912H123.241V22H114.2ZM125.528 22V7.45455H134.989V9.66335H128.163V13.6122H134.498V15.821H128.163V19.7912H135.045V22H125.528Z" fill="white"/>
<path d="M141.122 16V4.36364H145.27C146.175 4.36364 146.925 4.52841 147.52 4.85795C148.114 5.1875 148.56 5.63826 148.855 6.21023C149.15 6.77841 149.298 7.41856 149.298 8.13068C149.298 8.84659 149.149 9.49053 148.849 10.0625C148.554 10.6307 148.107 11.0814 147.508 11.4148C146.914 11.7443 146.166 11.9091 145.264 11.9091H142.412V10.4205H145.105C145.677 10.4205 146.141 10.322 146.497 10.125C146.853 9.92424 147.114 9.65152 147.281 9.30682C147.448 8.96212 147.531 8.57008 147.531 8.13068C147.531 7.69129 147.448 7.30114 147.281 6.96023C147.114 6.61932 146.851 6.35227 146.491 6.15909C146.135 5.96591 145.666 5.86932 145.082 5.86932H142.878V16H141.122ZM151.22 16V7.27273H152.862V8.65909H152.953C153.112 8.18939 153.392 7.82008 153.794 7.55114C154.199 7.27841 154.658 7.14205 155.169 7.14205C155.275 7.14205 155.4 7.14583 155.544 7.15341C155.692 7.16098 155.807 7.17045 155.891 7.18182V8.80682C155.822 8.78788 155.701 8.76705 155.527 8.74432C155.353 8.7178 155.178 8.70455 155.004 8.70455C154.603 8.70455 154.245 8.78977 153.93 8.96023C153.62 9.12689 153.373 9.35985 153.192 9.65909C153.01 9.95455 152.919 10.2917 152.919 10.6705V16H151.22ZM160.724 16.1761C159.906 16.1761 159.192 15.9886 158.582 15.6136C157.972 15.2386 157.499 14.714 157.162 14.0398C156.825 13.3655 156.656 12.5777 156.656 11.6761C156.656 10.7708 156.825 9.97917 157.162 9.30114C157.499 8.62311 157.972 8.09659 158.582 7.72159C159.192 7.34659 159.906 7.15909 160.724 7.15909C161.542 7.15909 162.257 7.34659 162.866 7.72159C163.476 8.09659 163.95 8.62311 164.287 9.30114C164.624 9.97917 164.792 10.7708 164.792 11.6761C164.792 12.5777 164.624 13.3655 164.287 14.0398C163.95 14.714 163.476 15.2386 162.866 15.6136C162.257 15.9886 161.542 16.1761 160.724 16.1761ZM160.73 14.75C161.26 14.75 161.7 14.6098 162.048 14.3295C162.397 14.0492 162.654 13.6761 162.821 13.2102C162.991 12.7443 163.077 12.2311 163.077 11.6705C163.077 11.1136 162.991 10.6023 162.821 10.1364C162.654 9.66667 162.397 9.28977 162.048 9.00568C161.7 8.72159 161.26 8.57955 160.73 8.57955C160.196 8.57955 159.753 8.72159 159.4 9.00568C159.052 9.28977 158.792 9.66667 158.622 10.1364C158.455 10.6023 158.372 11.1136 158.372 11.6705C158.372 12.2311 158.455 12.7443 158.622 13.2102C158.792 13.6761 159.052 14.0492 159.4 14.3295C159.753 14.6098 160.196 14.75 160.73 14.75Z" fill="#FFD905"/>
<path d="M184.531 10.2493L184.714 8.30104C184.858 6.77096 184.93 6.00591 184.668 5.68966C184.527 5.51858 184.334 5.41376 184.128 5.39568C183.748 5.36226 183.27 5.90632 182.314 6.99446C181.82 7.5572 181.573 7.83856 181.297 7.88216C181.144 7.90624 180.989 7.88144 180.847 7.81048C180.593 7.68232 180.423 7.3345 180.084 6.63881L178.294 2.97188C177.653 1.6573 177.332 1 176.844 1C176.355 1 176.035 1.6573 175.393 2.97189L173.604 6.63882C173.264 7.3345 173.094 7.68232 172.84 7.81048C172.699 7.88144 172.543 7.90624 172.39 7.88216C172.115 7.83856 171.867 7.5572 171.373 6.99446C170.417 5.90632 169.939 5.36226 169.559 5.39568C169.353 5.41376 169.16 5.51858 169.019 5.68966C168.757 6.00591 168.829 6.77096 168.973 8.30104L169.156 10.2493C169.459 13.4594 169.61 15.0644 170.556 16.0322C171.502 17 172.92 17 175.756 17H177.932C180.767 17 182.185 17 183.132 16.0322C184.078 15.0644 184.229 13.4594 184.531 10.2493Z" stroke="#FFD905" stroke-width="2"/>
<path d="M176.16 9.418C176.464 8.87264 176.616 8.6 176.844 8.6C177.071 8.6 177.223 8.87264 177.527 9.418L177.606 9.55912C177.692 9.71408 177.735 9.79152 177.802 9.84264C177.87 9.89376 177.954 9.9128 178.121 9.95072L178.274 9.98528C178.864 10.1189 179.16 10.1856 179.23 10.4114C179.3 10.6373 179.099 10.8726 178.696 11.3432L178.592 11.465C178.478 11.5986 178.421 11.6655 178.395 11.7482C178.369 11.831 178.378 11.9202 178.395 12.0986L178.411 12.261C178.472 12.889 178.502 13.2029 178.318 13.3425C178.135 13.482 177.858 13.3548 177.305 13.1003L177.163 13.0345C177.005 12.9622 176.927 12.926 176.844 12.926C176.76 12.926 176.682 12.9622 176.525 13.0345L176.382 13.1003C175.829 13.3548 175.553 13.482 175.369 13.3425C175.185 13.2029 175.215 12.889 175.276 12.261L175.292 12.0986C175.309 11.9202 175.318 11.831 175.292 11.7482C175.267 11.6655 175.209 11.5986 175.095 11.465L174.991 11.3432C174.588 10.8726 174.387 10.6373 174.457 10.4114C174.528 10.1856 174.823 10.1189 175.413 9.98528L175.566 9.95072C175.734 9.9128 175.817 9.89376 175.885 9.84264C175.952 9.79152 175.995 9.71408 176.082 9.55912L176.16 9.418Z" stroke="#FFD905" stroke-width="2"/>
</svg>
